<?xml version="1.0" standalone="no"?>
<!DOCTYPE svg PUBLIC "-//W3C//DTD SVG 20010904//EN"
 "http://www.w3.org/TR/2001/REC-SVG-20010904/DTD/svg10.dtd">
<svg version="1.0" xmlns="http://www.w3.org/2000/svg"
 width="1024.000000pt" height="1024.000000pt" viewBox="200 200 624.000000 624.000000"
 preserveAspectRatio="xMidYMid meet">

<g transform="translate(0.000000,1024.000000) scale(0.100000,-0.100000)"
fill="#000000" stroke="none">
<path d="M4901 7633 c-18 -9 -47 -35 -62 -56 -38 -52 -40 -131 -6 -197 28 -57
72 -80 151 -80 54 0 61 3 96 38 32 32 39 47 45 95 14 113 -15 175 -93 202 -58
19 -88 19 -131 -2z"/>
<path d="M4605 7485 c-182 -28 -426 -106 -633 -202 -137 -65 -331 -192 -424
-279 -52 -48 -56 -73 -18 -94 16 -8 37 3 122 67 262 196 563 332 879 397 70
14 136 26 148 26 18 0 21 6 21 44 0 25 -3 47 -7 49 -5 2 -44 -2 -88 -8z"/>
<path d="M5247 7483 c-4 -3 -7 -24 -7 -45 0 -35 2 -38 28 -38 34 0 182 -31
308 -64 254 -68 587 -241 774 -401 l54 -47 23 26 c13 15 23 32 23 37 0 40
-234 211 -414 301 -158 79 -402 173 -501 192 -249 49 -275 53 -288 39z"/>
<path d="M4942 7193 l-22 -4 1 -900 c1 -950 1 -929 44 -929 7 0 20 -3 29 -6
15 -6 16 79 16 908 0 698 -3 917 -12 926 -12 12 -16 13 -56 5z"/>
<path d="M5611 7006 c-7 -8 -22 -40 -34 -72 -22 -56 -25 -59 -68 -67 -49 -10
-75 -29 -64 -47 4 -6 26 -20 50 -30 43 -19 68 -47 98 -112 9 -21 23 -38 32
-38 8 0 27 24 41 52 32 62 46 75 99 85 68 14 58 65 -14 77 -36 5 -42 11 -65
60 -14 30 -26 59 -26 64 0 5 -8 16 -19 26 -16 14 -20 15 -30 2z"/>
<path d="M4284 6989 c-10 -11 -26 -42 -34 -67 -14 -44 -18 -47 -70 -62 -71
-21 -73 -41 -5 -78 40 -21 56 -39 80 -84 17 -31 34 -60 37 -64 12 -11 35 14
69 73 27 47 40 59 86 79 31 14 53 30 51 37 -2 6 -31 21 -65 31 -59 19 -61 20
-77 71 -9 29 -24 59 -34 69 -18 15 -20 15 -38 -5z"/>
<path d="M3335 6924 c-6 -1 -22 -5 -38 -8 -48 -11 -104 -71 -117 -126 -11 -45
-10 -54 9 -94 31 -62 83 -96 150 -96 66 0 106 22 133 75 39 74 19 171 -43 217
-32 24 -72 37 -94 32z"/>
<path d="M6547 6890 c-55 -48 -79 -94 -79 -149 0 -96 52 -151 141 -151 48 0
64 5 98 30 90 67 92 180 4 264 -22 21 -43 30 -79 34 -44 4 -52 1 -85 -28z"/>
<path d="M2656 6790 c-40 -36 -46 -65 -20 -110 9 -15 29 -35 45 -44 25 -15 32
-15 63 -2 49 20 74 72 57 115 -17 39 -40 59 -78 67 -25 5 -37 0 -67 -26z"/>
<path d="M7179 6778 c-37 -42 -37 -77 0 -117 37 -39 78 -41 120 -5 42 35 43
84 2 125 -41 40 -83 39 -122 -3z"/>
<path d="M6041 6751 c-26 -36 -26 -53 -3 -73 34 -30 58 -31 81 -2 27 35 27 40
-8 75 -37 36 -45 36 -70 0z"/>
<path d="M3941 6564 c-28 -36 -27 -48 10 -79 l32 -26 37 36 37 36 -26 30 c-32
36 -63 37 -90 3z"/>
<path d="M4550 6562 c-16 -17 -30 -35 -30 -40 0 -15 59 -62 77 -62 8 0 28 13
44 30 l30 30 -21 30 c-12 16 -25 30 -30 30 -5 0 -15 3 -24 6 -10 4 -27 -6 -46
-24z"/>
<path d="M3079 6518 c-98 -117 -237 -347 -255 -420 -5 -23 -2 -29 21 -40 25
-11 29 -10 50 14 12 14 43 65 70 114 26 49 87 144 136 210 49 67 89 127 89
133 0 13 -36 51 -49 51 -5 0 -33 -28 -62 -62z"/>
<path d="M5887 6541 l-26 -30 36 -31 36 -32 23 29 c29 35 29 34 3 67 -26 33
-40 33 -72 -3z"/>
<path d="M6263 6421 c-79 -82 -143 -156 -143 -164 0 -8 11 -22 24 -30 23 -15
25 -14 108 66 47 45 115 114 152 153 l66 71 -21 26 c-11 15 -26 27 -32 27 -7
-1 -76 -68 -154 -149z"/>
<path d="M3496 6531 c-14 -27 -14 -31 5 -55 32 -40 228 -230 247 -239 19 -9
72 7 72 22 0 17 -275 301 -292 301 -10 0 -24 -13 -32 -29z"/>
<path d="M6798 6539 c-16 -11 -28 -24 -28 -28 0 -4 37 -57 83 -117 45 -60 104
-151 131 -201 27 -51 54 -97 61 -103 14 -12 65 6 65 22 0 29 -69 174 -115 243
-63 93 -146 197 -160 201 -5 2 -22 -6 -37 -17z"/>
<path d="M5291 6521 c-39 -37 -39 -53 3 -98 l34 -37 31 33 c17 18 31 41 31 51
0 19 -46 80 -60 80 -4 0 -22 -13 -39 -29z"/>
<path d="M3244 6182 c-12 -9 -26 -26 -32 -38 -9 -18 -6 -26 23 -54 l35 -34 35
34 c19 19 35 38 35 43 0 11 -56 67 -67 67 -4 0 -18 -8 -29 -18z"/>
<path d="M6625 6180 c-46 -30 -50 -56 -16 -91 36 -35 54 -36 86 -4 33 32 32
68 -1 94 -32 26 -32 26 -69 1z"/>
<path d="M3903 6139 c-239 -39 -419 -240 -445 -499 -4 -31 -40 -39 -183 -39
-156 -1 -277 35 -443 131 -152 88 -246 170 -394 345 -48 56 -54 60 -69 47 -23
-21 -49 -130 -49 -207 0 -183 77 -332 234 -452 99 -76 91 -81 -48 -34 -104 36
-157 61 -175 83 -57 68 -52 -83 6 -198 68 -135 214 -248 360 -279 77 -16 68
-35 -19 -39 -66 -3 -123 2 -185 17 -20 5 -23 1 -23 -27 0 -48 36 -112 99 -176
69 -70 135 -106 223 -122 97 -18 134 -8 230 61 83 60 120 71 126 37 5 -25 -72
-103 -156 -160 -84 -57 -183 -101 -292 -129 -97 -26 -315 -37 -400 -20 -34 7
-65 10 -68 7 -21 -22 176 -150 309 -201 221 -85 540 -108 759 -56 120 29 271
84 359 133 236 129 463 339 605 561 137 215 195 389 202 611 l4 129 41 20 c87
43 252 227 227 253 -4 3 -28 -6 -55 -19 -52 -26 -189 -70 -204 -65 -5 2 12 19
38 38 27 20 62 58 78 86 35 59 61 131 51 141 -3 4 -41 -10 -84 -30 -66 -31
-150 -64 -214 -84 -9 -3 -37 13 -70 39 -67 55 -139 86 -214 93 -33 3 -70 7
-84 9 -14 2 -48 -1 -77 -5z m176 -296 c39 -47 40 -82 2 -122 -32 -34 -58 -38
-101 -16 -76 39 -79 123 -5 163 39 22 72 14 104 -25z m-102 -628 c23 -16 22
-45 -3 -66 -36 -30 -101 32 -68 66 19 19 44 19 71 0z m-382 -185 c3 -5 7 -28
8 -49 l1 -40 63 -11 c34 -7 68 -19 74 -27 16 -18 0 -68 -21 -69 -8 0 -36 -4
-62 -8 l-48 -8 -6 -49 c-8 -57 -22 -72 -58 -63 -20 5 -28 16 -36 48 -6 22 -13
49 -16 59 -4 13 -16 17 -54 17 -50 0 -60 9 -60 55 0 24 22 35 72 35 25 0 68
42 68 67 0 35 59 69 75 43z"/>
<path d="M5810 6126 c-66 -19 -130 -54 -170 -92 l-35 -33 -120 43 c-66 24
-137 51 -157 60 -21 9 -42 16 -48 16 -44 0 66 -182 145 -239 16 -11 24 -21 18
-21 -33 0 -154 34 -197 56 -27 14 -51 23 -53 20 -26 -26 126 -200 215 -245
l53 -27 5 -112 c5 -136 24 -233 70 -361 122 -337 367 -621 694 -806 197 -112
355 -161 570 -177 262 -19 480 21 692 128 61 30 164 102 192 133 19 21 19 21
-2 21 -11 0 -53 -7 -92 -15 -205 -43 -534 52 -701 203 -73 67 -87 89 -66 110
17 17 20 16 139 -67 62 -42 64 -43 124 -37 120 12 217 58 290 138 49 52 59 71
84 144 23 67 14 74 -57 50 -88 -30 -251 -34 -241 -5 2 6 36 21 76 35 120 40
192 82 255 147 63 66 79 92 107 173 20 56 36 164 26 164 -4 0 -42 -18 -85 -39
-108 -55 -271 -110 -271 -92 0 4 25 25 56 46 148 102 244 264 260 438 9 106
-20 247 -52 247 -7 0 -35 -29 -62 -64 -213 -270 -476 -431 -762 -464 -60 -7
-211 6 -224 19 -3 3 -12 41 -21 85 -33 173 -139 315 -292 391 -75 37 -80 38
-197 40 -75 1 -138 -3 -166 -11z m181 -288 c35 -49 34 -86 -3 -125 -41 -44
-138 -27 -157 28 -17 50 -13 69 23 105 26 26 42 34 70 34 31 0 40 -6 67 -42z
m43 -624 c9 -3 16 -18 16 -31 0 -46 -60 -71 -80 -34 -14 27 -13 37 6 55 16 17
33 20 58 10z m370 -271 c16 -47 17 -48 81 -68 63 -19 66 -21 63 -49 -3 -31 -7
-33 -90 -51 -16 -3 -28 -11 -28 -18 0 -36 -23 -86 -41 -92 -26 -9 -56 17 -64
56 -9 38 -49 69 -91 69 -31 0 -34 3 -34 30 0 32 22 50 63 50 27 0 41 13 52 50
24 83 66 93 89 23z"/>
<path d="M5224 5387 c-95 -97 -114 -128 -94 -152 23 -28 46 -15 145 85 l100
100 -15 28 c-9 15 -22 28 -30 30 -8 1 -56 -39 -106 -91z"/>
<path d="M4582 5445 c-7 -14 -12 -31 -12 -37 0 -11 179 -198 190 -198 3 0 13
13 22 28 16 26 16 30 -1 55 -29 44 -160 177 -174 177 -8 0 -19 -11 -25 -25z"/>
<path d="M4905 5221 c-37 -22 -59 -54 -75 -108 -16 -53 -1 -102 46 -143 29
-25 43 -30 88 -30 45 0 58 5 93 35 82 70 89 146 21 212 -57 55 -119 67 -173
34z"/>
<path d="M4709 4887 c-385 -364 -1159 -1129 -1159 -1145 0 -7 9 -21 21 -33
l20 -20 42 37 c23 20 186 179 362 353 176 174 405 398 509 496 104 99 215 205
248 237 l59 56 -15 31 c-9 16 -20 32 -24 35 -5 3 -33 -18 -63 -47z"/>
<path d="M5136 4898 c-9 -12 -16 -27 -16 -33 0 -11 135 -146 230 -230 76 -67
348 -326 699 -667 l296 -287 23 25 c12 14 22 31 22 38 0 13 -359 365 -784 770
-98 94 -234 224 -301 289 -66 64 -128 117 -137 117 -9 0 -24 -10 -32 -22z"/>
<path d="M4925 4768 c-11 -47 0 -1597 11 -1608 6 -6 24 -12 40 -13 l29 -2 3
823 2 822 -40 0 c-33 0 -41 -4 -45 -22z"/>
<path d="M4481 4174 c-28 -36 -27 -55 8 -88 33 -31 44 -29 67 15 14 28 14 33
-3 62 -25 41 -46 45 -72 11z"/>
<path d="M5352 4177 c-29 -31 -28 -48 7 -81 31 -30 38 -29 79 7 27 25 28 51 2
77 -27 27 -62 25 -88 -3z"/>
<path d="M2963 4054 c-34 -14 -11 -62 97 -209 89 -120 100 -129 128 -109 43
30 33 51 -103 230 -32 44 -59 80 -60 81 -1 5 -52 11 -62 7z"/>
<path d="M6910 4024 c-12 -19 -60 -81 -106 -136 -46 -55 -84 -104 -84 -108 0
-11 47 -40 64 -40 33 0 226 258 226 302 0 14 -8 18 -39 18 -34 0 -42 -5 -61
-36z"/>
<path d="M4560 3933 c-36 -30 -37 -43 -6 -72 30 -28 52 -25 79 11 17 22 18 32
10 51 -17 36 -48 40 -83 10z"/>
<path d="M3937 3762 c-27 -30 -21 -57 17 -77 34 -19 36 -19 55 0 26 23 27 49
1 75 -25 25 -52 26 -73 2z"/>
<path d="M5600 3718 c-10 -17 -22 -49 -25 -70 -7 -42 -30 -58 -85 -58 -31 0
-63 -25 -57 -44 2 -6 24 -22 49 -36 64 -35 76 -47 104 -103 14 -26 30 -47 37
-44 6 2 32 29 57 61 32 41 60 64 98 81 28 13 52 28 52 33 0 18 -36 40 -80 49
-43 8 -45 10 -66 70 -21 63 -39 93 -55 93 -5 0 -18 -14 -29 -32z"/>
<path d="M4303 3728 c-6 -7 -23 -37 -37 -66 -26 -52 -33 -57 -118 -91 -41 -16
-34 -36 20 -66 35 -19 59 -43 87 -86 20 -32 41 -59 46 -59 4 0 28 26 52 58 32
41 60 64 96 82 68 31 67 58 -1 80 -59 19 -63 23 -91 95 -24 61 -37 74 -54 53z"/>
<path d="M3304 3702 c-68 -43 -103 -122 -85 -189 36 -128 127 -163 236 -91 51
34 77 75 78 123 1 41 -40 124 -75 148 -39 29 -115 33 -154 9z"/>
<path d="M6510 3694 c-34 -29 -64 -81 -74 -131 -5 -23 -1 -44 18 -81 35 -69
67 -92 128 -92 87 0 144 38 168 113 20 64 -16 162 -73 197 -49 30 -127 27
-167 -6z"/>
<path d="M7178 3704 c-29 -15 -58 -61 -58 -90 0 -9 15 -31 34 -50 46 -46 86
-46 120 -1 15 19 26 42 26 51 0 30 -30 75 -60 91 -34 18 -28 18 -62 -1z"/>
<path d="M2704 3700 c-22 -9 -64 -56 -64 -72 0 -44 62 -108 103 -108 26 0 77
56 77 85 0 38 -24 79 -55 93 -30 14 -32 14 -61 2z"/>
<path d="M6301 3359 c-60 -56 -196 -139 -381 -233 -152 -77 -444 -178 -587
-202 -95 -16 -103 -19 -103 -40 0 -47 8 -53 63 -48 161 15 407 87 587 171 145
67 371 199 452 264 40 32 76 59 81 59 16 0 5 28 -21 53 -15 15 -30 27 -33 27
-2 -1 -28 -23 -58 -51z"/>
<path d="M3561 3364 c-12 -15 -21 -30 -21 -35 0 -20 137 -115 320 -221 238
-140 577 -255 766 -261 l79 -2 3 38 c3 37 3 37 -35 37 -71 0 -350 77 -506 139
-150 60 -384 190 -500 277 -39 30 -74 54 -78 54 -4 0 -17 -12 -28 -26z"/>
<path d="M4926 3030 c-67 -21 -106 -83 -106 -170 0 -75 20 -121 67 -158 46
-34 127 -38 169 -6 54 40 67 68 72 151 3 69 1 82 -20 112 -40 60 -119 90 -182
71z"/>
<path d="M3352 2934 c-28 -19 -29 -57 -2 -84 26 -26 43 -25 76 3 33 28 27 60
-16 82 -35 18 -31 18 -58 -1z"/>
<path d="M6506 2919 c-33 -26 -34 -68 -3 -97 32 -30 61 -27 91 9 24 29 25 32
11 59 -14 28 -42 50 -63 50 -5 0 -21 -9 -36 -21z"/>
</g>
</svg>
